<svg width="34" height="34" viewBox="0 0 34 34" fill="none" xmlns="http://www.w3.org/2000/svg">
<rect width="34" height="34" rx="10" fill="#006F79"/>
<g clip-path="url(#clip0_303_91)">
<path d="M27.9941 17.0194C27.9941 18.7106 27.9882 20.4018 27.997 22.0929C27.997 22.4329 27.87 22.6399 27.5657 22.7907C24.1684 24.4878 20.771 26.1908 17.3796 27.8997C17.1078 28.0357 16.8774 28.0298 16.6086 27.8938C13.2083 26.1819 9.80502 24.4759 6.39882 22.7729C6.12112 22.634 6 22.4388 6 22.1284C6.00591 18.7076 6.00591 15.2868 6 11.8631C6 11.5615 6.11817 11.3694 6.38996 11.2334C9.80798 9.52741 13.226 7.81258 16.6411 6.0948C16.8981 5.96471 17.1167 5.97358 17.3708 6.10072C20.771 7.81258 24.1713 9.51854 27.5775 11.2186C27.8759 11.3664 28 11.5675 28 11.8986C27.9911 13.6045 27.997 15.3135 27.997 17.0194H27.9941ZM7.02511 12.5668C7.0192 12.6584 7.01034 12.7176 7.01034 12.7797C7.01034 15.7717 7.01034 18.7608 7.00443 21.7529C7.00443 21.9303 7.08124 21.9954 7.21713 22.0634C10.2245 23.5683 13.229 25.0761 16.2334 26.581C16.3072 26.6195 16.384 26.649 16.4934 26.6993C16.4934 26.581 16.4934 26.4982 16.4934 26.4155C16.4934 23.4648 16.4934 20.5111 16.4993 17.5605C16.4993 17.3653 16.4313 17.2737 16.2659 17.1909C13.2644 15.6919 10.2659 14.187 7.26736 12.6821C7.1935 12.6437 7.11669 12.6141 7.02216 12.5697L7.02511 12.5668ZM19.7518 16.1945C19.6425 16.2418 19.5746 16.2714 19.5037 16.3069C18.9099 16.6025 18.322 16.9071 17.7223 17.1938C17.548 17.2766 17.4948 17.3801 17.4978 17.5693C17.5037 20.52 17.5007 23.4736 17.5007 26.4243C17.5007 26.5071 17.5007 26.5899 17.5007 26.7052C17.6071 26.6579 17.678 26.6283 17.743 26.5958C20.7563 25.085 23.7696 23.5742 26.7829 22.0693C26.9394 21.9924 26.9897 21.9007 26.9897 21.7293C26.9838 18.7608 26.9867 15.7954 26.9867 12.827C26.9867 12.753 26.9808 12.6762 26.9749 12.5757C26.8833 12.617 26.8124 12.6466 26.7445 12.6791C26.1448 12.9777 25.548 13.2852 24.9424 13.575C24.7858 13.6489 24.7326 13.7405 24.7326 13.912C24.7386 15.479 24.7356 17.0431 24.7356 18.6101C24.7356 18.885 24.771 19.1718 24.4638 19.3285C24.1595 19.4823 23.9468 19.293 23.7253 19.1304C23.3619 18.8673 22.9926 18.6071 22.6174 18.338C22.5465 18.4356 22.4904 18.5095 22.4372 18.5864C21.8612 19.4231 21.2851 20.2598 20.7061 21.0966C20.5258 21.3567 20.3309 21.4395 20.0916 21.3656C19.8641 21.2976 19.7459 21.1084 19.7459 20.792C19.7459 19.7513 19.7459 18.7106 19.7459 17.6669C19.7459 17.1909 19.7459 16.7119 19.7459 16.1975L19.7518 16.1945ZM11.0192 10.0448C11.0842 10.0832 11.1078 10.1039 11.1344 10.1158C14.1713 11.6414 17.2112 13.164 20.2511 14.6837C20.325 14.7192 20.449 14.7074 20.5258 14.6689C21.1846 14.3467 21.8375 14.0155 22.4934 13.6873C22.7356 13.5661 22.9749 13.4449 23.2378 13.3148C23.1817 13.2793 23.1521 13.2557 23.1167 13.2409C20.0857 11.7212 17.0547 10.1986 14.0207 8.68478C13.938 8.64338 13.7932 8.65521 13.7046 8.69956C12.9394 9.07209 12.1832 9.45645 11.4239 9.83785C11.2999 9.89994 11.1787 9.96498 11.0192 10.0448ZM19.2437 15.3164C19.1699 15.2721 19.1433 15.2543 19.1167 15.2395C16.0827 13.7169 13.0517 12.1943 10.0148 10.6805C9.94092 10.645 9.81684 10.6509 9.74003 10.6864C9.32939 10.8786 8.92762 11.0855 8.5229 11.2895C8.23929 11.4315 7.95864 11.5763 7.64254 11.736C7.74889 11.7951 7.81979 11.8395 7.89365 11.8749C10.7592 13.3118 13.6278 14.7428 16.4845 16.1975C16.8656 16.3897 17.1699 16.437 17.5244 16.1857C17.7016 16.0615 17.9114 15.9846 18.1064 15.887C18.4727 15.7037 18.839 15.5204 19.2437 15.3164ZM26.3634 11.7448C26.2688 11.6916 26.2097 11.6562 26.1507 11.6266C23.1521 10.1217 20.1566 8.61678 17.1551 7.12074C17.0694 7.07935 16.9276 7.08526 16.839 7.12665C16.2895 7.38683 15.7489 7.66475 15.2053 7.93676C15.1462 7.96633 15.0901 8.00476 15.0133 8.04911C15.1137 8.10233 15.1905 8.14076 15.2674 8.1792C18.0325 9.56584 20.8006 10.9554 23.5657 12.3421C23.8287 12.4751 24.1004 12.7028 24.3634 12.6998C24.6381 12.6969 24.9129 12.4692 25.1846 12.3362C25.5657 12.1469 25.9439 11.9548 26.3575 11.7448H26.3634ZM20.7504 19.1955L20.7947 19.2162C21.1581 18.6899 21.5185 18.1666 21.8818 17.6403C22.3191 17.0076 22.452 16.9839 23.0724 17.4245C23.2851 17.5752 23.5007 17.726 23.7341 17.8916V14.19C22.7504 14.6837 21.7903 15.1627 20.8331 15.6476C20.7888 15.6712 20.7533 15.7599 20.7533 15.819C20.7474 16.9455 20.7504 18.072 20.7504 19.1984V19.1955Z" fill="white"/>
</g>
<defs>
<clipPath id="clip0_303_91">
<rect width="22" height="22" fill="white" transform="translate(6 6)"/>
</clipPath>
</defs>
</svg>
