<svg width="34" height="34" viewBox="0 0 34 34" fill="none" xmlns="http://www.w3.org/2000/svg">
<rect width="34" height="34" rx="10" fill="#006F79"/>
<g clip-path="url(#clip0_303_66)">
<path d="M27.9999 18.9999C27.9056 19.2119 27.7428 19.3235 27.5086 19.3514C27.3029 19.3766 27.103 19.4351 26.8973 19.4631C26.6031 19.5021 26.3889 19.3542 26.3432 19.0947C26.3004 18.8492 26.4717 18.6372 26.7631 18.5786C26.8402 18.5646 26.9145 18.5451 27.0059 18.5256C26.4489 15.6768 25.8919 12.842 25.3292 9.97644C24.9521 10.0462 24.5837 10.1104 24.2152 10.1801C19.8535 11.0004 15.4946 11.8208 11.1329 12.6383C11.0357 12.6578 10.9329 12.6745 10.8358 12.669C10.6159 12.655 10.4473 12.4848 10.4245 12.2783C10.4016 12.0468 10.5302 11.8514 10.7758 11.7956C11.1871 11.7064 11.6042 11.6338 12.0183 11.5557C14.4406 11.1009 16.8628 10.6461 19.2879 10.1913C21.3816 9.79787 23.4725 9.40446 25.5663 9.01104C25.8776 8.95245 26.0918 9.09754 26.1547 9.41004C26.5146 11.2376 26.8716 13.0652 27.2315 14.8955C27.4772 16.1539 27.7228 17.4123 27.9713 18.6679C27.9771 18.693 27.9942 18.7181 28.0056 18.7432V18.9943L27.9999 18.9999Z" fill="white"/>
<path d="M15.0462 14.2009C17.8541 14.2009 20.6591 14.2009 23.4669 14.2009C23.9382 14.2009 24.0839 14.3432 24.0839 14.8008C24.0839 17.9063 24.0839 21.0118 24.0839 24.1144C24.0839 24.5553 23.9239 24.7115 23.4783 24.7115C17.8512 24.7115 12.2212 24.7115 6.59413 24.7115C6.15996 24.7115 6 24.5553 6 24.1284C6 21.009 6 17.8895 6 14.7729C6 14.3516 6.15139 14.2009 6.57985 14.2009C9.40197 14.2009 12.2241 14.2009 15.0434 14.2009H15.0462ZM6.91405 15.1049V15.3533C6.91405 18.0876 6.9169 20.8192 6.90834 23.5536C6.90834 23.7712 6.97118 23.8187 7.18255 23.8187C12.4183 23.8131 17.6513 23.8131 22.887 23.8131H23.1498V15.1049H6.91405Z" fill="white"/>
<path d="M25.1923 21.1846C24.881 18.2856 24.5725 15.4173 24.264 12.5267C23.7955 12.5741 23.3442 12.616 22.8901 12.6634C21.4247 12.8141 19.9565 12.962 18.4912 13.1154C17.203 13.2493 15.9147 13.3833 14.6265 13.5172C13.204 13.6651 11.7787 13.8074 10.3562 13.9553C10.0991 13.9804 9.84488 14.0138 9.58781 14.0362C9.25361 14.0641 9.03366 13.9134 9.00796 13.6483C8.97939 13.3721 9.15078 13.1852 9.48498 13.1489C10.9503 12.9954 12.4156 12.8448 13.8838 12.6941C15.3149 12.5462 16.7459 12.3983 18.1741 12.2505C19.6109 12.1026 21.0505 11.9575 22.4873 11.8096C23.17 11.7399 23.8527 11.6645 24.5382 11.6003C24.9295 11.5641 25.0895 11.7008 25.1323 12.0886C25.318 13.8018 25.5008 15.515 25.6865 17.2281C25.8379 18.6288 25.9893 20.0295 26.1435 21.4274C26.1864 21.8124 26.0521 21.9993 25.6636 22.0496C25.3666 22.0886 25.0666 22.1193 24.7667 22.1444C24.5068 22.1667 24.2897 21.9938 24.2611 21.7594C24.2297 21.5083 24.3754 21.3157 24.641 21.2599C24.7324 21.2404 24.8267 21.2404 24.9181 21.2292C25.0009 21.2181 25.0866 21.2041 25.1923 21.1902V21.1846Z" fill="white"/>
<path d="M15.0377 15.5569C16.8572 15.5569 18.6739 15.5569 20.4934 15.5569C20.959 15.5569 21.0761 15.6601 21.1304 16.1009C21.1818 16.5306 21.5245 16.8599 21.9644 16.8989C22.3615 16.9352 22.4986 17.0775 22.4986 17.4598C22.4986 18.7907 22.4986 20.1216 22.4986 21.4525C22.4986 21.8152 22.37 21.9575 21.9987 22.0022C21.4617 22.0691 21.1703 22.3649 21.1218 22.895C21.0961 23.174 20.9418 23.3247 20.6562 23.3498C20.5991 23.3554 20.5419 23.3526 20.4848 23.3526C16.8543 23.3526 13.2267 23.3526 9.59621 23.3498C9.45053 23.3498 9.27629 23.3387 9.16775 23.2605C9.06206 23.188 8.98208 23.0262 8.96494 22.895C8.89639 22.3677 8.61075 22.0663 8.07946 22.0022C7.70527 21.9547 7.57959 21.8236 7.57959 21.4553C7.57959 20.116 7.57959 18.7795 7.57959 17.4402C7.57959 17.0775 7.72241 16.9296 8.08803 16.8989C8.57076 16.8571 8.9021 16.5362 8.95638 16.0619C8.99922 15.6768 9.14204 15.5513 9.53908 15.5513C11.3729 15.5513 13.2038 15.5513 15.0377 15.5513V15.5569ZM15.0377 22.4542C16.7144 22.4542 18.3882 22.4542 20.0649 22.4542C20.202 22.4542 20.2734 22.4291 20.3277 22.284C20.5191 21.7706 20.8818 21.4079 21.4103 21.2209C21.5502 21.1707 21.5902 21.1037 21.5902 20.9642C21.5845 19.9542 21.5845 18.9469 21.5902 17.9369C21.5902 17.8085 21.5617 17.7416 21.4246 17.6941C20.8876 17.5072 20.5162 17.1445 20.3191 16.6227C20.2706 16.4916 20.2077 16.4553 20.0735 16.4553C16.7144 16.4581 13.3581 16.4581 9.99896 16.4553C9.86185 16.4553 9.80187 16.4944 9.75331 16.6227C9.55622 17.1445 9.18489 17.5072 8.64788 17.6941C8.52792 17.736 8.48507 17.789 8.48793 17.9146C8.49364 18.9385 8.49364 19.9598 8.48793 20.9837C8.48793 21.1233 8.5422 21.1735 8.66502 21.2181C9.18489 21.4051 9.55051 21.7538 9.74189 22.2616C9.79901 22.4123 9.87042 22.457 10.0332 22.457C11.7014 22.4514 13.3695 22.4542 15.0377 22.4542Z" fill="white"/>
<path d="M12.5181 19.4492C12.5209 18.082 13.6521 16.9799 15.046 16.9827C16.4456 16.9827 17.5682 18.0987 17.5625 19.4827C17.5568 20.8192 16.4228 21.9269 15.0546 21.9297C13.6521 21.9352 12.5152 20.822 12.5181 19.4492ZM15.0288 21.0256C15.9258 21.0256 16.6513 20.3281 16.6513 19.4604C16.6513 18.5926 15.9315 17.8867 15.0374 17.8783C14.1662 17.8699 13.435 18.5814 13.4321 19.4408C13.4264 20.3197 14.1377 21.0228 15.0288 21.0256Z" fill="white"/>
</g>
<defs>
<clipPath id="clip0_303_66">
<rect width="22" height="15.7143" fill="white" transform="translate(6 9)"/>
</clipPath>
</defs>
</svg>
